<svg width="553" height="206" viewBox="0 0 553 206" fill="none" xmlns="http://www.w3.org/2000/svg">
<g clip-path="url(#clip0_540_26)">
<path d="M285.4 68.0001L311.7 66.3001C312.3 70.6001 313.4 73.8001 315.2 76.1001C318.1 79.7001 322.1 81.5001 327.4 81.5001C331.3 81.5001 334.4 80.6001 336.5 78.7001C338.5 77.2001 339.7 74.8001 339.7 72.3001C339.7 69.9001 338.6 67.6001 336.7 66.1001C334.7 64.3001 330 62.5001 322.6 60.9001C310.5 58.2001 301.8 54.6001 296.7 50.0001C291.6 45.7001 288.7 39.4001 288.9 32.7001C288.9 28.1001 290.3 23.5001 292.9 19.7001C295.9 15.4001 300 12.0001 304.9 10.1001C310.2 7.8001 317.6 6.6001 326.9 6.6001C338.3 6.6001 347 8.7001 353 13.0001C359 17.2001 362.6 24.0001 363.7 33.3001L337.7 34.8001C337 30.8001 335.6 27.9001 333.3 26.0001C331 24.1001 328 23.2001 324.1 23.2001C320.9 23.2001 318.5 23.9001 316.9 25.2001C315.4 26.4001 314.4 28.2001 314.5 30.2001C314.5 31.7001 315.3 33.1001 316.5 34.0001C317.8 35.2001 320.9 36.3001 325.8 37.3001C337.9 39.9001 346.5 42.5001 351.8 45.2001C357.1 47.9001 360.9 51.2001 363.2 55.1001C365.6 59.1001 366.8 63.7001 366.7 68.4001C366.7 74.0001 365.1 79.6001 361.9 84.3001C358.6 89.2001 354 93.0001 348.6 95.3001C342.9 97.8001 335.7 99.1001 327.1 99.1001C311.9 99.1001 301.4 96.2001 295.5 90.3001C289.6 84.4001 286.1 77.0001 285.4 68.0001ZM6.3 97.6001V8.2001H52.4C60.9 8.2001 67.5 8.9001 72 10.4001C76.4 11.8001 80.3 14.7001 82.9 18.6001C85.8 22.9001 87.2 27.9001 87.1 33.1001C87.4 41.9001 82.9 50.3001 75.2 54.7001C72.2 56.4001 68.9 57.6001 65.5 58.2001C68 58.9001 70.5 60.1001 72.7 61.5001C74.4 62.9001 75.8 64.5001 77.1 66.2001C78.6 67.9001 79.9 69.8001 81 71.8001L94.4 97.7001H63L48.2 70.2001C46.3 66.7001 44.7 64.4001 43.2 63.3001C41.2 61.9001 38.8 61.2001 36.4 61.2001H34V97.5001H6.3V97.6001ZM34 44.4001H45.7C48.2 44.2001 50.6 43.8001 53 43.2001C54.8 42.9001 56.4 41.9001 57.5 40.4001C60.2 36.8001 59.8 31.7001 56.5 28.6001C54.7 27.1001 51.2 26.3001 46.2 26.3001H34V44.4001ZM0 174.2L26.3 172.5C26.9 176.8 28 180 29.8 182.3C32.6 185.9 36.7 187.8 42 187.8C45.9 187.8 49 186.9 51.1 185C53.1 183.4 54.3 181.1 54.3 178.6C54.3 176.2 53.2 173.9 51.3 172.4C49.3 170.6 44.6 168.8 37.1 167.2C25 164.5 16.3 160.9 11.2 156.3C6.1 152 3.2 145.7 3.4 139C3.4 134.4 4.8 129.8 7.4 126C10.4 121.7 14.5 118.3 19.4 116.4C24.7 114.1 32.1 112.9 41.4 112.9C52.8 112.9 61.5 115 67.5 119.3C73.5 123.6 77 130.3 78.1 139.6L52.1 141.1C51.4 137.1 50 134.2 47.7 132.3C45.5 130.4 42.4 129.5 38.5 129.6C35.3 129.6 32.9 130.3 31.3 131.7C29.7 132.9 28.8 134.7 28.9 136.7C28.9 138.2 29.7 139.6 30.9 140.5C32.2 141.7 35.3 142.8 40.2 143.8C52.3 146.4 60.9 149 66.2 151.7C71.5 154.4 75.3 157.7 77.6 161.6C80 165.6 81.2 170.2 81.2 174.8C81.2 180.4 79.5 185.9 76.4 190.6C73.1 195.5 68.5 199.3 63.1 201.6C57.4 204.1 50.2 205.4 41.6 205.4C26.4 205.4 15.9 202.5 10 196.6C4.1 190.6 0.8 183.2 0 174.2H0Z" fill="black"/>
<path d="M132.999 167.2L157.199 174.5C155.899 180.6 153.199 186.4 149.499 191.5C146.099 196 141.599 199.5 136.499 201.8C131.299 204.1 124.699 205.3 116.699 205.3C106.999 205.3 98.9992 203.9 92.8992 201.1C86.6992 198.3 81.3992 193.3 76.8992 186.2C72.3992 179.1 70.1992 170 70.1992 158.9C70.1992 144.1 74.0992 132.7 81.9992 124.8C89.8992 116.9 100.999 112.9 115.399 112.9C126.699 112.9 135.499 115.2 141.999 119.7C148.399 124.3 153.199 131.3 156.399 140.7L131.999 146.1C131.399 144 130.499 141.9 129.299 140.1C127.799 138 125.899 136.4 123.599 135.2C121.299 134 118.699 133.5 116.099 133.5C109.799 133.5 104.999 136 101.699 141.1C99.1992 144.8 97.8992 150.7 97.8992 158.7C97.8992 168.6 99.3992 175.4 102.399 179.1C105.399 182.8 109.599 184.6 115.099 184.6C120.399 184.6 124.399 183.1 127.099 180.2C129.799 177.1 131.799 172.8 132.999 167.2ZM189.499 114.4H217.099V145.7H247.299V114.4H275.099V203.8H247.299V167.6H217.099V203.8H189.499V114.4V114.4Z" fill="black"/>
<path d="M271.301 159.1C271.301 144.5 275.401 133.1 283.501 125C291.601 116.9 303.001 112.8 317.501 112.8C332.401 112.8 343.801 116.8 351.901 124.8C360.001 132.8 364.001 144 364.001 158.4C364.001 168.9 362.201 177.4 358.701 184.1C355.301 190.7 350.001 196.1 343.501 199.7C336.801 203.4 328.501 205.3 318.601 205.3C308.501 205.3 300.201 203.7 293.601 200.5C286.801 197.1 281.201 191.8 277.501 185.3C273.401 178.3 271.301 169.6 271.301 159.1ZM298.901 159.2C298.901 168.2 300.601 174.7 303.901 178.7C307.201 182.6 311.801 184.6 317.601 184.6C323.501 184.6 328.101 182.7 331.401 178.8C334.701 174.9 336.301 168 336.301 158C336.301 149.6 334.601 143.4 331.201 139.6C327.801 135.7 323.201 133.8 317.401 133.8C312.301 133.6 307.401 135.8 304.001 139.7C300.601 143.6 298.901 150.1 298.901 159.2V159.2ZM392.301 159.1C392.301 144.5 396.401 133.1 404.501 125C412.601 116.9 424.001 112.8 438.501 112.8C453.401 112.8 464.901 116.8 472.901 124.8C480.901 132.8 485.001 144 485.001 158.4C485.001 168.9 483.201 177.4 479.701 184.1C476.301 190.7 471.001 196.1 464.501 199.7C457.801 203.4 449.501 205.3 439.601 205.3C429.501 205.3 421.201 203.7 414.601 200.5C407.801 197.1 402.201 191.8 398.501 185.3C394.401 178.3 392.301 169.6 392.301 159.1V159.1ZM419.901 159.2C419.901 168.2 421.601 174.7 424.901 178.7C428.201 182.6 432.801 184.6 438.601 184.6C444.501 184.6 449.101 182.7 452.401 178.8C455.701 174.9 457.301 168 457.301 158C457.301 149.6 455.601 143.4 452.201 139.6C448.801 135.7 444.201 133.8 438.401 133.8C433.301 133.6 428.301 135.8 425.001 139.7C421.601 143.6 419.901 150.1 419.901 159.2V159.2Z" fill="black"/>
<path d="M482.1 114.4H509.7V181.8H552.8V203.8H482V114.4H482.1Z" fill="black"/>
<path d="M451.678 109.241C479.466 88.3008 488.034 52.8041 470.817 29.9568C453.6 7.10944 417.116 5.56324 389.329 26.5032C361.542 47.4432 352.973 82.9399 370.19 105.787C387.408 128.635 423.891 130.181 451.678 109.241Z" fill="white"/>
<path d="M451.678 109.241C479.466 88.3008 488.034 52.8041 470.817 29.9568C453.6 7.10944 417.116 5.56324 389.329 26.5032C361.542 47.4432 352.973 82.9399 370.19 105.787C387.408 128.635 423.891 130.181 451.678 109.241Z" fill="white"/>
<path d="M451.678 109.241C479.466 88.3008 488.034 52.8041 470.817 29.9568C453.6 7.10944 417.116 5.56324 389.329 26.5032C361.542 47.4432 352.973 82.9399 370.19 105.787C387.408 128.635 423.891 130.181 451.678 109.241Z" fill="white" stroke="black" stroke-width="4" stroke-miterlimit="10"/>
<path d="M451.678 109.241C479.466 88.3008 488.034 52.8041 470.817 29.9568C453.6 7.10944 417.116 5.56324 389.329 26.5032C361.542 47.4432 352.973 82.9399 370.19 105.787C387.408 128.635 423.891 130.181 451.678 109.241Z" stroke="black" stroke-width="4" stroke-miterlimit="10"/>
<path d="M451.678 109.241C479.466 88.3008 488.034 52.8041 470.817 29.9568C453.6 7.10944 417.116 5.56324 389.329 26.5032C361.542 47.4432 352.973 82.9399 370.19 105.787C387.408 128.635 423.891 130.181 451.678 109.241Z" fill="#FF6B08" stroke="black" stroke-width="4" stroke-miterlimit="10"/>
<path d="M451.678 109.241C479.466 88.3008 488.034 52.8041 470.817 29.9568C453.6 7.10944 417.116 5.56324 389.329 26.5032C361.542 47.4432 352.973 82.9399 370.19 105.787C387.408 128.635 423.891 130.181 451.678 109.241Z" stroke="black" stroke-width="4" stroke-miterlimit="10"/>
<path d="M392.4 61.3L402.4 54.3L414.7 71.8C416.8 74.6 418.4 77.6 419.6 80.9C420.3 83.4 420.1 86.1 419.1 88.5C417.8 91.5 415.7 94 412.9 95.8C409.6 98.1 406.8 99.4 404.4 99.8C402.1 100.2 399.7 99.8 397.5 98.8C395.1 97.6 393 95.9 391.4 93.7L400 85.7C400.7 86.8 401.6 87.8 402.6 88.6C403.3 89.1 404.1 89.4 405 89.4C405.7 89.4 406.4 89.1 406.9 88.7C407.9 88.1 408.6 86.9 408.5 85.7C408.2 84 407.5 82.3 406.4 81L392.4 61.3ZM422.4 72.4L431.5 65.2C432.5 66.4 433.8 67.3 435.2 67.8C437.2 68.4 439.3 68 441 66.7C442.2 65.9 443.2 64.8 443.6 63.4C444.2 61.6 443.2 59.6 441.4 59C441.1 58.9 440.8 58.8 440.5 58.8C439.3 58.7 437.2 59.2 434.1 60.5C429 62.6 425 63.4 422 63.1C419.1 62.8 416.4 61.3 414.8 58.8C413.6 57.1 413 55.1 412.9 53.1C412.9 50.8 413.5 48.5 414.8 46.6C416.7 43.9 419 41.6 421.8 39.8C426 36.9 429.7 35.5 432.9 35.5C436.1 35.5 439.1 37 441.9 40.1L432.9 47.2C431.1 44.9 427.7 44.4 425.4 46.2L425.1 46.5C424.1 47.1 423.4 48 423 49.1C422.7 49.9 422.9 50.8 423.4 51.5C423.8 52 424.4 52.4 425.1 52.4C425.9 52.5 427.3 52.1 429.3 51.2C434.3 49.1 438.1 47.9 440.7 47.5C442.9 47.1 445.2 47.3 447.3 48.2C449.2 49 450.8 50.4 451.9 52.1C453.3 54.1 454.1 56.5 454.2 59C454.3 61.6 453.6 64.1 452.2 66.3C450.4 69 448.1 71.3 445.4 73.1C439.9 76.9 435.4 78.5 431.8 77.9C427.9 77.3 424.7 75.3 422.4 72.4Z" fill="black"/>
</g>
<defs>
<clipPath id="clip0_540_26">
<rect width="552.8" height="205.3" fill="white"/>
</clipPath>
</defs>
</svg>
